<svg width="173" height="67" viewBox="0 0 173 67" fill="none" xmlns="http://www.w3.org/2000/svg">
<g clip-path="url(#clip0_97_1984)">
<path d="M33.6301 15.7876C32.8703 11.8796 35.5201 8.10765 39.4364 7.48548C41.5797 7.11607 43.7229 7.73824 45.3596 9.00202C46.6261 10.1297 47.5029 11.6462 47.8926 13.2794C48.5161 17.3041 45.8662 20.9594 41.9694 21.7176C38.0725 22.3398 34.2731 19.8317 33.6496 15.807L33.6301 15.7876Z" fill="url(#paint0_linear_97_1984)"/>
<path d="M52.0422 24.7118C53.3087 44.9713 39.1827 63.2086 18.7633 66.8639C18.7633 66.8639 30.9993 59.6895 35.0326 43.5908C24.1799 45.4768 13.7363 38.0496 11.8269 27.2394C9.93694 16.2931 17.2435 5.73563 28.2131 3.84968C28.8366 3.73302 29.4796 3.59692 29.9862 3.73302C26.0893 7.13552 23.9266 12.4045 24.9397 17.9457C26.3231 26.2478 34.2727 31.789 42.5924 30.4086C46.5087 29.6503 49.7821 27.6477 52.0422 24.7507V24.7118Z" fill="url(#paint1_linear_97_1984)"/>
<path d="M16.3085 46.9544C8.10565 44.0186 1.90968 37.0775 0.35095 27.9588C-1.81179 15.4571 6.0793 3.4025 18.0036 0C7.94978 5.40511 1.90968 16.8375 4.07243 28.581C5.31942 36.4553 9.95665 42.9492 16.3085 46.9739V46.9544Z" fill="url(#paint2_linear_97_1984)"/>
<path d="M47.8921 13.2794C48.5156 17.3041 45.8658 20.9594 41.9689 21.7176C38.0721 22.3398 34.2727 19.8317 33.6492 15.807C32.8893 11.899 35.5391 8.12709 39.4555 7.50492C41.5987 7.13551 43.742 7.75768 45.3787 9.02146C46.6451 10.1491 47.5219 11.6657 47.9116 13.2989L47.8921 13.2794Z" fill="url(#paint3_linear_97_1984)"/>
<path d="M47.8921 13.2794C48.5156 17.3041 45.8658 20.9594 41.9689 21.7176C38.0721 22.3398 34.2727 19.8317 33.6492 15.807C32.8893 11.899 35.5391 8.12709 39.4555 7.50492C41.5987 7.13551 43.742 7.75768 45.3787 9.02146C46.6451 10.1491 47.5219 11.6657 47.9116 13.2989L47.8921 13.2794Z" fill="url(#paint4_linear_97_1984)"/>
<path d="M83.9965 30.7391C83.9965 31.4002 83.9575 31.9057 83.8601 32.2557C83.3925 32.2557 83.0613 32.4112 82.808 32.6445C82.5547 32.8778 82.3988 33.2861 82.3014 33.8694C82.204 34.4333 82.1455 35.2693 82.1455 36.3387V50.182C81.7169 50.3181 81.1713 50.3764 80.5088 50.3764L69.247 35.5221V44.563C69.247 45.6712 69.3054 46.5073 69.4223 47.0906C69.5392 47.6738 69.7341 48.0821 70.0458 48.3349C70.3576 48.5877 70.7667 48.7238 71.3318 48.7432C71.4487 49.0932 71.5071 49.5987 71.5071 50.2597C70.6498 50.2014 69.6367 50.182 68.4871 50.182C67.1037 50.182 66.0711 50.2014 65.3891 50.2597C65.3891 49.6181 65.4281 49.1126 65.5255 48.7432C66.0711 48.7432 66.4997 48.5877 66.792 48.3349C67.0842 48.0821 67.2986 47.6738 67.4155 47.0906C67.5324 46.5073 67.6103 45.6712 67.6103 44.563V33.3834L67.4155 33.1306C67.1622 32.8195 66.9284 32.6251 66.6751 32.5084C66.4413 32.3918 66.0516 32.314 65.506 32.2751C65.4086 31.8668 65.3696 31.3613 65.3696 30.7586C65.9736 30.8169 66.8504 30.8363 67.9415 30.8363C68.8768 30.8363 69.6367 30.8169 70.2407 30.7586L80.4699 44.4269V36.3387C80.4699 35.2499 80.4114 34.4333 80.2945 33.8694C80.1776 33.3056 79.9828 32.8973 79.671 32.664C79.3593 32.4307 78.9306 32.2946 78.3656 32.2751C78.2487 31.7502 78.1902 31.2446 78.1902 30.7586C79.028 30.8169 80.0217 30.8363 81.1713 30.8363C82.3209 30.8363 83.2366 30.8169 83.977 30.7586L83.9965 30.7391Z" fill="white"/>
<path d="M105.409 50.2403C104.669 50.182 103.461 50.1625 101.805 50.1625C100.032 50.1625 98.7848 50.182 98.0444 50.2403C98.0444 49.5987 98.1224 49.0932 98.2782 48.7237C98.7653 48.6654 99.0966 48.5682 99.3304 48.4321C99.5447 48.296 99.6616 48.1016 99.6616 47.8294C99.6616 47.5377 99.5252 47.11 99.2524 46.5073L98.2977 44.2713C95.3361 44.2713 92.9006 44.3102 91.0106 44.4074L90.4456 45.9045C90.1923 46.5267 90.0754 47.0517 90.0754 47.4794C90.0754 47.8683 90.1923 48.1599 90.4261 48.3543C90.6599 48.5488 91.0106 48.6654 91.4783 48.7043C91.6341 49.1709 91.7121 49.6764 91.7121 50.2208C91.0691 50.1625 90.0949 50.1431 88.7894 50.1431C88.2439 50.1431 87.4061 50.1625 86.3149 50.2208C86.3149 49.6376 86.3929 49.132 86.5487 48.7237C87.0359 48.6265 87.4255 48.3932 87.7178 47.9849C87.9906 47.5961 88.3803 46.8183 88.8479 45.6907L94.81 30.7586C95.2192 30.6614 95.6868 30.6225 96.2129 30.6225L102.915 45.7879C103.286 46.585 103.578 47.1878 103.812 47.5766C104.046 47.9655 104.26 48.2377 104.455 48.4127C104.65 48.5682 104.903 48.6654 105.215 48.7043C105.351 49.1709 105.409 49.6764 105.409 50.2208V50.2403ZM97.6742 42.8326L95.8037 38.4774C95.2971 37.3302 94.849 36.2026 94.4788 35.0749C94.1281 36.1831 93.7384 37.3108 93.3098 38.4774L91.6536 42.8326H97.6742Z" fill="white"/>
<path d="M113.749 51.2708C113.457 52.4957 112.872 53.6039 111.976 54.576C111.099 55.5482 109.793 56.462 108.04 57.298C107.65 57.0453 107.436 56.6759 107.377 56.1898C108.508 55.2954 109.326 54.3233 109.852 53.2539C110.378 52.1846 110.631 50.7653 110.631 48.9765V34.9582C110.631 34.2388 110.573 33.6944 110.475 33.325C110.378 32.9556 110.183 32.7029 109.91 32.5473C109.638 32.3918 109.248 32.2946 108.702 32.2557C108.566 31.8668 108.508 31.3613 108.508 30.7391C109.462 30.7975 110.768 30.8169 112.404 30.8169C114.138 30.8169 115.444 30.7975 116.301 30.7391C116.301 31.4196 116.243 31.9251 116.126 32.2557C115.6 32.2946 115.191 32.3918 114.918 32.5473C114.645 32.7029 114.45 32.9556 114.353 33.325C114.236 33.6944 114.177 34.2388 114.177 34.9388V46.4878C114.177 48.4321 114.022 50.0264 113.729 51.2513L113.749 51.2708Z" fill="white"/>
<path d="M138.357 50.2403C137.617 50.182 136.409 50.1625 134.753 50.1625C132.98 50.1625 131.733 50.182 130.992 50.2403C130.992 49.5987 131.07 49.0932 131.226 48.7237C131.713 48.6654 132.044 48.5682 132.278 48.4321C132.492 48.296 132.609 48.1016 132.609 47.8294C132.609 47.5377 132.473 47.11 132.2 46.5073L131.245 44.2713C128.284 44.2713 125.848 44.3102 123.958 44.4074L123.393 45.9045C123.14 46.5267 123.023 47.0517 123.023 47.4794C123.023 47.8683 123.14 48.1599 123.374 48.3543C123.608 48.5488 123.958 48.6654 124.426 48.7043C124.582 49.1709 124.66 49.6764 124.66 50.2208C124.017 50.1625 123.043 50.1431 121.737 50.1431C121.192 50.1431 120.354 50.1625 119.263 50.2208C119.263 49.6376 119.341 49.132 119.497 48.7237C119.984 48.6265 120.373 48.3932 120.666 47.9849C120.938 47.5961 121.328 46.8183 121.796 45.6907L127.758 30.7586C128.167 30.6614 128.635 30.6225 129.161 30.6225L135.863 45.7879C136.233 46.585 136.526 47.1878 136.759 47.5766C136.993 47.9655 137.208 48.2377 137.402 48.4127C137.597 48.5682 137.851 48.6654 138.162 48.7043C138.299 49.1709 138.357 49.6764 138.357 50.2208V50.2403ZM130.622 42.8326L128.751 38.4774C128.245 37.3302 127.797 36.2026 127.427 35.0749C127.076 36.1831 126.686 37.3108 126.258 38.4774L124.601 42.8326H130.622Z" fill="white"/>
<path d="M159.03 47.6738C159.147 48.0433 159.342 48.296 159.595 48.4516C159.868 48.6071 160.258 48.7043 160.803 48.7432C160.92 49.1126 160.979 49.6181 160.979 50.2597C159.926 50.2014 158.66 50.182 157.199 50.182C155.62 50.182 154.276 50.2014 153.185 50.2597C153.185 49.6959 153.243 49.1904 153.38 48.7432C153.906 48.7043 154.315 48.6071 154.588 48.4516C154.861 48.296 155.036 48.0433 155.153 47.6738C155.25 47.3044 155.309 46.76 155.309 46.0406V40.9855C151.392 40.9855 148.762 41.0438 147.457 41.1799V46.0406C147.457 46.76 147.515 47.3044 147.632 47.6738C147.749 48.0433 147.944 48.296 148.197 48.4516C148.47 48.6071 148.859 48.7043 149.405 48.7432C149.522 49.0543 149.58 49.5598 149.58 50.2597C148.528 50.2014 147.281 50.182 145.82 50.182C144.222 50.182 142.878 50.2014 141.806 50.2597C141.806 49.6181 141.865 49.1126 141.982 48.7432C142.508 48.7043 142.917 48.6071 143.19 48.4516C143.462 48.296 143.657 48.0433 143.755 47.6738C143.871 47.3044 143.93 46.76 143.93 46.0406V34.9193C143.93 34.2194 143.871 33.675 143.755 33.325C143.638 32.9556 143.443 32.7029 143.19 32.5473C142.917 32.3918 142.527 32.2946 141.982 32.2557C141.865 31.8474 141.806 31.3419 141.806 30.7391C142.839 30.7975 144.144 30.8169 145.742 30.8169C147.164 30.8169 148.431 30.7975 149.58 30.7391C149.58 31.0308 149.58 31.303 149.561 31.5752C149.561 31.8474 149.502 32.0807 149.424 32.2557C148.898 32.2946 148.489 32.3918 148.216 32.5473C147.944 32.7029 147.749 32.9556 147.651 33.325C147.535 33.6944 147.476 34.2194 147.476 34.9193V39.469H155.328V34.9193C155.328 34.2194 155.27 33.675 155.172 33.325C155.075 32.9556 154.88 32.7029 154.607 32.5473C154.334 32.3918 153.945 32.2946 153.399 32.2557C153.263 31.8668 153.204 31.3613 153.204 30.7391C154.237 30.7975 155.562 30.8169 157.16 30.8169C158.582 30.8169 159.848 30.7975 160.998 30.7391C160.998 31.4002 160.94 31.9057 160.823 32.2557C160.297 32.2946 159.887 32.3918 159.615 32.5473C159.342 32.7029 159.147 32.9556 159.05 33.325C158.933 33.6944 158.874 34.2194 158.874 34.9193V46.0406C158.874 46.76 158.933 47.3044 159.05 47.6738H159.03Z" fill="white"/>
<path d="M167.174 33.3056C167.058 32.9362 166.863 32.6834 166.609 32.5279C166.337 32.3723 165.947 32.2751 165.401 32.2362C165.285 31.8279 165.226 31.3224 165.226 30.7197C166.259 30.778 167.564 30.7975 169.162 30.7975C170.584 30.7975 171.851 30.778 173 30.7197C173 31.0113 173 31.2835 172.981 31.5557C172.981 31.8279 172.922 32.0613 172.844 32.2362C172.318 32.2751 171.909 32.3723 171.636 32.5279C171.364 32.6834 171.169 32.9362 171.071 33.3056C170.954 33.675 170.896 34.2 170.896 34.8999V46.0212C170.896 46.7406 170.954 47.285 171.071 47.6544C171.188 48.0238 171.383 48.2766 171.636 48.4321C171.909 48.5877 172.299 48.6849 172.844 48.7238C172.961 49.0348 173.02 49.5404 173.02 50.2403C171.968 50.182 170.721 50.1625 169.259 50.1625C167.662 50.1625 166.317 50.182 165.246 50.2403C165.246 49.5987 165.304 49.0932 165.421 48.7238C165.947 48.6849 166.356 48.5877 166.629 48.4321C166.902 48.2766 167.097 48.0238 167.194 47.6544C167.311 47.285 167.369 46.7406 167.369 46.0212V34.8999C167.369 34.2 167.311 33.6556 167.194 33.3056H167.174Z" fill="white"/>
<path d="M80.0214 61.1866H80.9567L83.061 65.2307L85.1458 61.1866H86.1005V66.9417H85.3601V62.3532L83.2948 66.3389H82.8077L80.7423 62.3532V66.9417H80.002V61.1866H80.0214Z" fill="white"/>
<path d="M93.719 61.1866L91.5563 64.9585V66.9222H90.7574V64.9779L88.5752 61.1671H89.374L91.1471 64.103L92.9007 61.1671H93.6995L93.719 61.1866Z" fill="white"/>
<path d="M102.545 62.0032C102.253 61.9254 102 61.8671 101.746 61.8671C101.415 61.8671 101.142 61.9254 100.948 62.0615C100.753 62.1976 100.655 62.3726 100.655 62.5865C100.655 62.7809 100.714 62.9559 100.831 63.092C100.948 63.2281 101.103 63.3253 101.279 63.4031C101.454 63.4809 101.707 63.5586 102.019 63.6558C102.409 63.7725 102.721 63.8892 102.974 64.0058C103.208 64.1225 103.422 64.278 103.597 64.4919C103.773 64.7057 103.851 64.9974 103.851 65.3474C103.851 65.6779 103.753 65.9695 103.578 66.2028C103.403 66.4556 103.149 66.6306 102.838 66.7667C102.526 66.9028 102.156 66.9611 101.727 66.9611C101.298 66.9611 100.889 66.8834 100.499 66.7084C100.09 66.5528 99.7591 66.3195 99.4668 66.0473L99.8175 65.3668C100.09 65.639 100.402 65.8334 100.753 65.989C101.103 66.1445 101.435 66.2028 101.746 66.2028C102.136 66.2028 102.428 66.1251 102.662 65.9695C102.896 65.814 102.993 65.6196 102.993 65.3668C102.993 65.1724 102.935 64.9974 102.818 64.8613C102.701 64.7252 102.545 64.628 102.37 64.5502C102.195 64.4724 101.941 64.3947 101.63 64.2975C101.24 64.1808 100.928 64.0641 100.694 63.9669C100.46 63.8503 100.246 63.6947 100.09 63.4809C99.9149 63.267 99.837 62.9948 99.837 62.6448C99.837 62.3337 99.9149 62.0615 100.09 61.8282C100.266 61.5949 100.499 61.4199 100.811 61.2838C101.123 61.1672 101.474 61.0894 101.883 61.0894C102.234 61.0894 102.565 61.1477 102.896 61.2449C103.227 61.3421 103.52 61.4782 103.773 61.6532L103.442 62.3532C103.169 62.1782 102.896 62.0615 102.604 61.9643L102.545 62.0032Z" fill="white"/>
<path d="M107.845 65.8334C108.137 66.1251 108.546 66.2806 109.053 66.2806C109.559 66.2806 109.969 66.1251 110.261 65.8334C110.553 65.5418 110.689 65.114 110.689 64.5891V61.1866H111.488V64.5891C111.488 65.3474 111.274 65.9306 110.845 66.3584C110.417 66.7861 109.813 67 109.072 67C108.332 67 107.708 66.7861 107.28 66.3584C106.851 65.9306 106.637 65.3474 106.637 64.5891V61.1866H107.436V64.5891C107.436 65.114 107.591 65.5418 107.884 65.8334H107.845Z" fill="white"/>
<path d="M118.055 62.0421C117.762 61.906 117.47 61.8476 117.158 61.8476C116.749 61.8476 116.379 61.9449 116.048 62.1393C115.717 62.3337 115.444 62.6059 115.249 62.9364C115.054 63.267 114.957 63.6364 114.957 64.0447C114.957 64.453 115.054 64.8224 115.249 65.1529C115.444 65.4835 115.717 65.7557 116.048 65.9501C116.379 66.1445 116.769 66.2417 117.158 66.2417C117.47 66.2417 117.762 66.1834 118.055 66.0667C118.347 65.9501 118.6 65.7751 118.834 65.5612L119.321 66.0862C119.029 66.3778 118.698 66.5917 118.308 66.7472C117.918 66.9028 117.529 66.9806 117.139 66.9806C116.593 66.9806 116.087 66.8445 115.639 66.5917C115.19 66.3389 114.82 65.9695 114.567 65.5223C114.294 65.0752 114.177 64.5696 114.177 64.0447C114.177 63.5197 114.314 63.0142 114.567 62.567C114.84 62.1198 115.19 61.7699 115.658 61.5171C116.126 61.2644 116.632 61.1283 117.178 61.1283C117.587 61.1283 117.977 61.206 118.347 61.3616C118.717 61.5171 119.048 61.731 119.321 62.0032L118.853 62.567C118.639 62.3337 118.386 62.1587 118.094 62.0226L118.055 62.0421Z" fill="white"/>
<path d="M125.322 62.0421C125.03 61.906 124.738 61.8476 124.426 61.8476C124.017 61.8476 123.647 61.9449 123.315 62.1393C122.984 62.3337 122.711 62.6059 122.516 62.9364C122.322 63.267 122.224 63.6364 122.224 64.0447C122.224 64.453 122.322 64.8224 122.516 65.1529C122.711 65.4835 122.984 65.7557 123.315 65.9501C123.647 66.1445 124.036 66.2417 124.426 66.2417C124.738 66.2417 125.03 66.1834 125.322 66.0667C125.614 65.9501 125.868 65.7751 126.102 65.5612L126.589 66.0862C126.296 66.3778 125.965 66.5917 125.575 66.7472C125.186 66.9028 124.796 66.9806 124.406 66.9806C123.861 66.9806 123.354 66.8445 122.906 66.5917C122.458 66.3389 122.088 65.9695 121.835 65.5223C121.562 65.0752 121.445 64.5696 121.445 64.0447C121.445 63.5197 121.581 63.0142 121.835 62.567C122.107 62.1198 122.458 61.7699 122.926 61.5171C123.393 61.2644 123.9 61.1283 124.445 61.1283C124.855 61.1283 125.244 61.206 125.614 61.3616C125.985 61.5171 126.316 61.731 126.589 62.0032L126.121 62.567C125.907 62.3337 125.653 62.1587 125.361 62.0226L125.322 62.0421Z" fill="white"/>
<path d="M129.316 61.1866H133.311V61.906H130.096V63.6753H132.96V64.3947H130.096V66.2223H133.408V66.9417H129.316V61.1866Z" fill="white"/>
<path d="M138.864 62.0032C138.571 61.9254 138.318 61.8671 138.065 61.8671C137.734 61.8671 137.461 61.9254 137.266 62.0615C137.071 62.1976 136.974 62.3726 136.974 62.5865C136.974 62.7809 137.032 62.9559 137.149 63.092C137.266 63.2281 137.422 63.3253 137.597 63.4031C137.773 63.4809 138.026 63.5586 138.338 63.6558C138.727 63.7725 139.039 63.8892 139.292 64.0058C139.526 64.1225 139.74 64.278 139.916 64.4919C140.091 64.7057 140.169 64.9974 140.169 65.3474C140.169 65.6779 140.072 65.9695 139.896 66.2028C139.721 66.4556 139.468 66.6306 139.156 66.7667C138.844 66.9028 138.474 66.9611 138.045 66.9611C137.617 66.9611 137.207 66.8834 136.818 66.7084C136.409 66.5528 136.077 66.3195 135.785 66.0473L136.136 65.3668C136.409 65.639 136.72 65.8334 137.071 65.989C137.422 66.1445 137.753 66.2028 138.065 66.2028C138.454 66.2028 138.747 66.1251 138.981 65.9695C139.214 65.814 139.312 65.6196 139.312 65.3668C139.312 65.1724 139.253 64.9974 139.136 64.8613C139.02 64.7252 138.864 64.628 138.688 64.5502C138.513 64.4724 138.26 64.3947 137.948 64.2975C137.558 64.1808 137.246 64.0641 137.013 63.9669C136.779 63.8503 136.565 63.6947 136.409 63.4809C136.233 63.267 136.155 62.9948 136.155 62.6448C136.155 62.3337 136.233 62.0615 136.409 61.8282C136.584 61.5949 136.818 61.4199 137.13 61.2838C137.441 61.1672 137.792 61.0894 138.201 61.0894C138.552 61.0894 138.883 61.1477 139.214 61.2449C139.546 61.3421 139.838 61.4782 140.091 61.6532L139.76 62.3532C139.487 62.1782 139.214 62.0615 138.922 61.9643L138.864 62.0032Z" fill="white"/>
<path d="M145.586 62.0032C145.294 61.9254 145.04 61.8671 144.787 61.8671C144.456 61.8671 144.183 61.9254 143.988 62.0615C143.793 62.1976 143.696 62.3726 143.696 62.5865C143.696 62.7809 143.754 62.9559 143.871 63.092C143.988 63.2281 144.144 63.3253 144.319 63.4031C144.495 63.4809 144.748 63.5586 145.06 63.6558C145.449 63.7725 145.761 63.8892 146.014 64.0058C146.248 64.1225 146.463 64.278 146.638 64.4919C146.813 64.7057 146.891 64.9974 146.891 65.3474C146.891 65.6779 146.794 65.9695 146.618 66.2028C146.443 66.4556 146.19 66.6306 145.878 66.7667C145.566 66.9028 145.196 66.9611 144.767 66.9611C144.339 66.9611 143.93 66.8834 143.54 66.7084C143.131 66.5528 142.8 66.3195 142.507 66.0473L142.858 65.3668C143.131 65.639 143.443 65.8334 143.793 65.989C144.144 66.1445 144.475 66.2028 144.787 66.2028C145.177 66.2028 145.469 66.1251 145.703 65.9695C145.937 65.814 146.034 65.6196 146.034 65.3668C146.034 65.1724 145.976 64.9974 145.859 64.8613C145.742 64.7252 145.586 64.628 145.41 64.5502C145.235 64.4724 144.982 64.3947 144.67 64.2975C144.28 64.1808 143.969 64.0641 143.735 63.9669C143.501 63.8503 143.287 63.6947 143.131 63.4809C142.955 63.267 142.878 62.9948 142.878 62.6448C142.878 62.3337 142.955 62.0615 143.131 61.8282C143.306 61.5949 143.54 61.4199 143.852 61.2838C144.163 61.1672 144.514 61.0894 144.923 61.0894C145.274 61.0894 145.605 61.1477 145.937 61.2449C146.268 61.3421 146.56 61.4782 146.813 61.6532L146.482 62.3532C146.209 62.1782 145.937 62.0615 145.644 61.9643L145.586 62.0032Z" fill="white"/>
<path d="M172.766 9.21591C172.766 9.76031 172.688 10.1686 172.629 10.363C172.22 10.4214 171.948 10.4991 171.753 10.6352C171.48 10.7713 171.344 10.9658 171.207 11.238V20.065H123.627V2.91643C123.627 2.64423 123.568 2.50813 123.49 2.37203C123.432 2.17761 123.296 1.90541 123.081 1.82763C122.886 1.63321 122.536 1.63321 122.068 1.55543C122.01 1.28323 121.932 0.816607 121.932 0.330536C122.672 0.388864 123.705 0.388864 125.069 0.388864C126.432 0.388864 127.446 0.388864 128.206 0.330536C128.206 0.874935 128.147 1.34156 128.011 1.55543C127.602 1.61376 127.329 1.61376 127.134 1.82763C126.939 1.88596 126.725 2.15816 126.666 2.37203C126.666 2.56646 126.608 2.70256 126.608 2.91643V17.2458H151.801C150.437 16.157 149.287 14.8738 148.391 13.2989C147.436 11.8018 146.832 10.1103 146.56 8.28265L149.287 6.24116C149.346 7.32996 149.56 8.28265 149.891 9.15758C150.164 10.1103 150.632 10.9852 151.119 11.8018C151.664 12.6184 152.268 13.3572 152.95 14.1155C153.632 14.6599 154.373 15.2626 155.191 15.807C155.932 16.1376 156.828 16.5459 157.705 16.8181C158.581 17.1486 159.478 17.2264 160.354 17.2264H168.382V9.27424H171.246C171.85 9.27424 172.396 9.27424 172.805 9.21591H172.766Z" fill="white"/>
<path d="M121.269 17.2458L118.892 20.1039H101.162C101.025 20.1039 100.83 20.1039 100.694 19.9678C100.285 19.9678 99.8758 19.6956 99.4666 19.3651C98.921 18.8984 98.317 18.0041 97.7715 16.7792L94.9852 11.2185H94.654L94.2448 11.413C94.1084 11.413 93.9721 11.4713 93.9136 11.6074C93.7772 11.6657 93.7188 11.7435 93.7188 11.8018L96.505 17.5763C96.505 17.7708 96.4271 18.1207 96.3102 18.4513C96.1738 18.7818 95.9789 19.054 95.7646 19.2679C95.4918 19.5401 95.297 19.7345 95.0242 19.8706C94.7514 20.065 94.4786 20.065 94.2838 20.065H67.2592C66.5188 20.065 65.8954 20.065 65.4277 20.1233C65.4277 19.5206 65.4862 19.0345 65.5641 18.7623C66.0317 18.704 66.3825 18.6262 66.5773 18.4318C66.9085 18.2957 67.0449 18.1013 67.2592 17.7513V17.2069H92.9784L90.1921 11.5685C90.1337 11.4324 90.1337 11.3741 90.1337 11.2963C90.1337 11.1602 90.2701 10.888 90.4649 10.7519C90.6597 10.4214 90.9325 10.2853 91.2832 9.9353C91.6145 9.74087 91.9652 9.46867 92.4328 9.2548C92.842 9.06037 93.2511 8.78817 93.6603 8.65207C94.1279 8.45764 94.5371 8.24377 94.9463 8.18545C95.3554 8.04935 95.6867 7.99102 95.9594 7.99102C96.1543 7.99102 96.3686 8.04935 96.505 8.18545C96.6998 8.18545 96.8362 8.24377 96.9142 8.37987L100.324 15.3793C100.519 15.7876 100.655 16.0598 100.869 16.2542C101.006 16.5264 101.201 16.7208 101.337 16.8569C101.473 17.0514 101.668 17.1291 101.805 17.1291C101.941 17.1291 102.136 17.1875 102.272 17.1875H110.67C109.93 16.6431 109.306 16.0403 108.702 15.4182C108.098 14.6794 107.553 14.0572 107.143 13.2406C106.676 12.5018 106.267 11.6852 105.916 10.7908C105.643 9.97419 105.37 9.09926 105.234 8.20489L107.962 6.16339C108.098 7.71882 108.429 9.15759 109.053 10.4408C109.657 11.8018 110.475 12.9489 111.508 14.0377C112.463 14.9127 113.612 15.807 114.918 16.2737C116.203 16.8181 117.567 17.1486 119.068 17.1486H121.308L121.269 17.2458Z" fill="white"/>
<path d="M151.704 26.3645C152.511 26.3645 153.165 25.7116 153.165 24.9063C153.165 24.1009 152.511 23.4481 151.704 23.4481C150.896 23.4481 150.242 24.1009 150.242 24.9063C150.242 25.7116 150.896 26.3645 151.704 26.3645Z" fill="white"/>
<path d="M169.726 5.69676C170.534 5.69676 171.188 5.0439 171.188 4.23855C171.188 3.4332 170.534 2.78033 169.726 2.78033C168.919 2.78033 168.265 3.4332 168.265 4.23855C168.265 5.0439 168.919 5.69676 169.726 5.69676Z" fill="white"/>
<path d="M88.4774 26.3645C89.2845 26.3645 89.9387 25.7116 89.9387 24.9063C89.9387 24.1009 89.2845 23.4481 88.4774 23.4481C87.6704 23.4481 87.0161 24.1009 87.0161 24.9063C87.0161 25.7116 87.6704 26.3645 88.4774 26.3645Z" fill="white"/>
<path d="M84.9315 26.3645C85.7386 26.3645 86.3928 25.7116 86.3928 24.9063C86.3928 24.1009 85.7386 23.4481 84.9315 23.4481C84.1245 23.4481 83.4702 24.1009 83.4702 24.9063C83.4702 25.7116 84.1245 26.3645 84.9315 26.3645Z" fill="white"/>
</g>
<defs>
<linearGradient id="paint0_linear_97_1984" x1="8.33968" y1="-14.6599" x2="80.9545" y2="51.152" gradientUnits="userSpaceOnUse">
<stop stop-color="#FFD02B"/>
<stop offset="1" stop-color="#EE3F32"/>
</linearGradient>
<linearGradient id="paint1_linear_97_1984" x1="-9.3524" y1="4.86071" x2="63.2819" y2="70.6727" gradientUnits="userSpaceOnUse">
<stop stop-color="#FFD02B"/>
<stop offset="1" stop-color="#EE3F32"/>
</linearGradient>
<linearGradient id="paint2_linear_97_1984" x1="-7.3453" y1="2.64423" x2="65.289" y2="68.4562" gradientUnits="userSpaceOnUse">
<stop stop-color="#FFD02B"/>
<stop offset="1" stop-color="#EE3F32"/>
</linearGradient>
<linearGradient id="paint3_linear_97_1984" x1="8.33924" y1="-14.6599" x2="80.9541" y2="51.152" gradientUnits="userSpaceOnUse">
<stop stop-color="#FFD02B"/>
<stop offset="1" stop-color="#EE3F32"/>
</linearGradient>
<linearGradient id="paint4_linear_97_1984" x1="8.33924" y1="-14.6599" x2="80.9541" y2="51.152" gradientUnits="userSpaceOnUse">
<stop stop-color="#FFD02B"/>
<stop offset="1" stop-color="#EE3F32"/>
</linearGradient>
<clipPath id="clip0_97_1984">
<rect width="173" height="67" fill="white"/>
</clipPath>
</defs>
</svg>
